<svg id="visual" viewBox="0 0 960 540" width="960" height="540" xmlns="http://www.w3.org/2000/svg" xmlns:xlink="http://www.w3.org/1999/xlink" version="1.1"><path d="M0 82L12.3 91C24.7 100 49.3 118 74 127C98.7 136 123.3 136 148 120.7C172.7 105.3 197.3 74.7 221.8 75.5C246.3 76.3 270.7 108.7 295.2 114.2C319.7 119.7 344.3 98.3 369 81.3C393.7 64.3 418.3 51.7 443 51.7C467.7 51.7 492.3 64.3 517 76C541.7 87.7 566.3 98.3 591 106.3C615.7 114.3 640.3 119.7 664.8 125C689.3 130.3 713.7 135.7 738.2 126.7C762.7 117.7 787.3 94.3 812 92.7C836.7 91 861.3 111 886 108.3C910.7 105.7 935.3 80.3 947.7 67.7L960 55L960 0L947.7 0C935.3 0 910.7 0 886 0C861.3 0 836.7 0 812 0C787.3 0 762.7 0 738.2 0C713.7 0 689.3 0 664.8 0C640.3 0 615.7 0 591 0C566.3 0 541.7 0 517 0C492.3 0 467.7 0 443 0C418.3 0 393.7 0 369 0C344.3 0 319.7 0 295.2 0C270.7 0 246.3 0 221.8 0C197.3 0 172.7 0 148 0C123.3 0 98.7 0 74 0C49.3 0 24.7 0 12.3 0L0 0Z" fill="#6860fa"></path><path d="M0 228L12.3 240.5C24.7 253 49.3 278 74 273.5C98.7 269 123.3 235 148 200.8C172.7 166.7 197.3 132.3 221.8 152.2C246.3 172 270.7 246 295.2 275.7C319.7 305.3 344.3 290.7 369 278.8C393.7 267 418.3 258 443 262.5C467.7 267 492.3 285 517 270.7C541.7 256.3 566.3 209.7 591 191.7C615.7 173.7 640.3 184.3 664.8 194.2C689.3 204 713.7 213 738.2 223.8C762.7 234.7 787.3 247.3 812 243.8C836.7 240.3 861.3 220.7 886 202.7C910.7 184.7 935.3 168.3 947.7 160.2L960 152L960 53L947.7 65.7C935.3 78.3 910.7 103.7 886 106.3C861.3 109 836.7 89 812 90.7C787.3 92.3 762.7 115.7 738.2 124.7C713.7 133.7 689.3 128.3 664.8 123C640.3 117.7 615.7 112.3 591 104.3C566.3 96.3 541.7 85.7 517 74C492.3 62.3 467.7 49.7 443 49.7C418.3 49.7 393.7 62.3 369 79.3C344.3 96.3 319.7 117.7 295.2 112.2C270.7 106.7 246.3 74.3 221.8 73.5C197.3 72.7 172.7 103.3 148 118.7C123.3 134 98.7 134 74 125C49.3 116 24.7 98 12.3 89L0 80Z" fill="#5d6efd"></path><path d="M0 255L12.3 275.7C24.7 296.3 49.3 337.7 74 333.2C98.7 328.7 123.3 278.3 148 238.7C172.7 199 197.3 170 221.8 189.8C246.3 209.7 270.7 278.3 295.2 313.5C319.7 348.7 344.3 350.3 369 343C393.7 335.7 418.3 319.3 443 316.7C467.7 314 492.3 325 517 314.3C541.7 303.7 566.3 271.3 591 259.7C615.7 248 640.3 257 664.8 260.5C689.3 264 713.7 262 738.2 269.2C762.7 276.3 787.3 292.7 812 287.3C836.7 282 861.3 255 886 234.3C910.7 213.7 935.3 199.3 947.7 192.2L960 185L960 150L947.7 158.2C935.3 166.3 910.7 182.7 886 200.7C861.3 218.7 836.7 238.3 812 241.8C787.3 245.3 762.7 232.7 738.2 221.8C713.7 211 689.3 202 664.8 192.2C640.3 182.3 615.7 171.7 591 189.7C566.3 207.7 541.7 254.3 517 268.7C492.3 283 467.7 265 443 260.5C418.3 256 393.7 265 369 276.8C344.3 288.7 319.7 303.3 295.2 273.7C270.7 244 246.3 170 221.8 150.2C197.3 130.3 172.7 164.7 148 198.8C123.3 233 98.7 267 74 271.5C49.3 276 24.7 251 12.3 238.5L0 226Z" fill="#547bff"></path><path d="M0 368L12.3 376.2C24.7 384.3 49.3 400.7 74 406.2C98.7 411.7 123.3 406.3 148 398.2C172.7 390 197.3 379 221.8 380.7C246.3 382.3 270.7 396.7 295.2 412.8C319.7 429 344.3 447 369 443.5C393.7 440 418.3 415 443 407.8C467.7 400.7 492.3 411.3 517 424.8C541.7 438.3 566.3 454.7 591 449.3C615.7 444 640.3 417 664.8 403.5C689.3 390 713.7 390 738.2 385.5C762.7 381 787.3 372 812 372.8C836.7 373.7 861.3 384.3 886 391.5C910.7 398.7 935.3 402.3 947.7 404.2L960 406L960 183L947.7 190.2C935.3 197.3 910.7 211.7 886 232.3C861.3 253 836.7 280 812 285.3C787.3 290.7 762.7 274.3 738.2 267.2C713.7 260 689.3 262 664.8 258.5C640.3 255 615.7 246 591 257.7C566.3 269.3 541.7 301.7 517 312.3C492.3 323 467.7 312 443 314.7C418.3 317.3 393.7 333.7 369 341C344.3 348.3 319.7 346.7 295.2 311.5C270.7 276.3 246.3 207.7 221.8 187.8C197.3 168 172.7 197 148 236.7C123.3 276.3 98.7 326.7 74 331.2C49.3 335.7 24.7 294.3 12.3 273.7L0 253Z" fill="#5087ff"></path><path d="M0 411L12.3 421C24.7 431 49.3 451 74 458.3C98.7 465.7 123.3 460.3 148 449.5C172.7 438.7 197.3 422.3 221.8 419.5C246.3 416.7 270.7 427.3 295.2 441.7C319.7 456 344.3 474 369 468.7C393.7 463.3 418.3 434.7 443 428.5C467.7 422.3 492.3 438.7 517 454C541.7 469.3 566.3 483.7 591 483.7C615.7 483.7 640.3 469.3 664.8 456.7C689.3 444 713.7 433 738.2 424.8C762.7 416.7 787.3 411.3 812 412.3C836.7 413.3 861.3 420.7 886 422.5C910.7 424.3 935.3 420.7 947.7 418.8L960 417L960 404L947.7 402.2C935.3 400.3 910.7 396.7 886 389.5C861.3 382.3 836.7 371.7 812 370.8C787.3 370 762.7 379 738.2 383.5C713.7 388 689.3 388 664.8 401.5C640.3 415 615.7 442 591 447.3C566.3 452.7 541.7 436.3 517 422.8C492.3 409.3 467.7 398.7 443 405.8C418.3 413 393.7 438 369 441.5C344.3 445 319.7 427 295.2 410.8C270.7 394.7 246.3 380.3 221.8 378.7C197.3 377 172.7 388 148 396.2C123.3 404.3 98.7 409.7 74 404.2C49.3 398.7 24.7 382.3 12.3 374.2L0 366Z" fill="#5192fe"></path><path d="M0 460L12.3 469.8C24.7 479.7 49.3 499.3 74 502C98.7 504.7 123.3 490.3 148 483.2C172.7 476 197.3 476 221.8 473.3C246.3 470.7 270.7 465.3 295.2 471.7C319.7 478 344.3 496 369 495.2C393.7 494.3 418.3 474.7 443 472.8C467.7 471 492.3 487 517 496.8C541.7 506.7 566.3 510.3 591 510.3C615.7 510.3 640.3 506.7 664.8 503C689.3 499.3 713.7 495.7 738.2 489.3C762.7 483 787.3 474 812 475.8C836.7 477.7 861.3 490.3 886 485C910.7 479.7 935.3 456.3 947.7 444.7L960 433L960 415L947.7 416.8C935.3 418.7 910.7 422.3 886 420.5C861.3 418.7 836.7 411.3 812 410.3C787.3 409.3 762.7 414.7 738.2 422.8C713.7 431 689.3 442 664.8 454.7C640.3 467.3 615.7 481.7 591 481.7C566.3 481.7 541.7 467.3 517 452C492.3 436.7 467.7 420.3 443 426.5C418.3 432.7 393.7 461.3 369 466.7C344.3 472 319.7 454 295.2 439.7C270.7 425.3 246.3 414.7 221.8 417.5C197.3 420.3 172.7 436.7 148 447.5C123.3 458.3 98.7 463.7 74 456.3C49.3 449 24.7 429 12.3 419L0 409Z" fill="#569cfd"></path><path d="M0 541L12.3 541C24.7 541 49.3 541 74 541C98.7 541 123.3 541 148 541C172.7 541 197.3 541 221.8 541C246.3 541 270.7 541 295.2 541C319.7 541 344.3 541 369 541C393.7 541 418.3 541 443 541C467.7 541 492.3 541 517 541C541.7 541 566.3 541 591 541C615.7 541 640.3 541 664.8 541C689.3 541 713.7 541 738.2 541C762.7 541 787.3 541 812 541C836.7 541 861.3 541 886 541C910.7 541 935.3 541 947.7 541L960 541L960 431L947.7 442.7C935.3 454.3 910.7 477.7 886 483C861.3 488.3 836.7 475.7 812 473.8C787.3 472 762.7 481 738.2 487.3C713.7 493.7 689.3 497.3 664.8 501C640.3 504.7 615.7 508.3 591 508.3C566.3 508.3 541.7 504.7 517 494.8C492.3 485 467.7 469 443 470.8C418.3 472.7 393.7 492.3 369 493.2C344.3 494 319.7 476 295.2 469.7C270.7 463.3 246.3 468.7 221.8 471.3C197.3 474 172.7 474 148 481.2C123.3 488.3 98.7 502.7 74 500C49.3 497.3 24.7 477.7 12.3 467.8L0 458Z" fill="#60a5fa"></path></svg>